<?xml version="1.0" encoding="utf-8"?>
<!-- Generator: Adobe Illustrator 19.2.1, SVG Export Plug-In . SVG Version: 6.00 Build 0)  -->
<svg version="1.1" id="Layer_1" xmlns="http://www.w3.org/2000/svg" xmlns:xlink="http://www.w3.org/1999/xlink" x="0px" y="0px"
	 viewBox="0 0 249.9 168.4" style="enable-background:new 0 0 249.9 168.4;" xml:space="preserve">
<style type="text/css">
	.st0{fill:#4A4A57;}
	.st1{fill:#FFFFFF;}
	.st2{fill:#CCCBCB;}
	.st3{fill:#8E6B59;}
	.st4{fill:#F06B2F;}
	.st5{fill:#235165;}
	.st6{fill:#26A7DF;}
	.st7{display:none;fill:#FFFFFF;}
	.st8{fill:#D7694A;}
	.st9{fill:#092939;}
	.st10{fill:#9B7861;}
	.st11{fill:none;stroke:#F26A2F;stroke-width:0.6946;stroke-linecap:round;stroke-miterlimit:10;}
	.st12{fill:none;stroke:#4A4A57;stroke-width:0.4117;stroke-linecap:round;stroke-miterlimit:10;}
	.st13{fill:none;stroke:#231F20;stroke-width:1.2826;stroke-miterlimit:10;}
	.st14{fill:#D9694A;}
	.st15{fill:#4D4D4D;}
	.st16{fill:#808080;}
	.st17{opacity:0.3;fill:#808080;}
</style>
<g>
	<g>
		<rect x="107.9" y="47.7" class="st0" width="36" height="35"/>
		<path class="st1" d="M100.8,130.1c0,0-1.5,19.3-2.2,31.6h59.7c-2.5-13.8-7.8-39.9-7.8-39.9l13.8-0.3c0,0-2.8-19.3-3-22.7
			c-0.2-3.4-5.8-16.3-8.9-21.8c-5.3-9.5-26.9-11-26.9-11s-19.8,3.8-22.9,9.9c-3.1,6.1-9.1,19-9.1,27.5c0,8.8-1.3,14.1,2.8,19.7
			C98.7,126.4,100.8,130.1,100.8,130.1z"/>
		<path class="st2" d="M147.6,87.2c-0.1-0.7,2.6,10.6,0.6,17.8c-0.7,2.5,0.3,4.4,0.3,4.4l-1.4,0.6c0,0-1.7-3.2-1.9-6.1
			s1.4-4.1,1.6-5.2C148,94,147.6,87.2,147.6,87.2z"/>
		<path class="st3" d="M131.9,56.7h-14v22h0.3c0,0,0,0.2,0,0.2c0,0.9,3.1,1.8,7,1.8c3.9,0,7-0.9,7-1.8c0,0,0-0.2,0-0.2h-0.2V56.7z"
			/>
		<g>
			<g>
				<polygon class="st4" points="136.6,94.3 139.5,92.6 142.4,94.3 142.4,97.6 139.5,99.2 136.6,97.6 				"/>
				<polygon class="st5" points="138,90.7 136.3,89.7 134.5,90.7 134.5,92.7 136.3,93.7 138,92.7 				"/>
				<polygon class="st6" points="136,94.2 134.7,93.5 133.4,94.2 133.4,95.8 134.7,96.5 136,95.8 				"/>
				<polygon class="st7" points="133.8,90.9 132.8,90.3 131.8,90.9 131.8,92 132.8,92.6 133.8,92 				"/>
			</g>
			<polygon class="st4" points="133.9,90.7 132.9,90.1 132,90.7 132,91.8 132.9,92.4 133.9,91.8 			"/>
		</g>
		<path class="st8" d="M118,66.4c-0.5-0.7-4.7,2.9-4.7,2.9s-0.6,10.5,0.8,14.5c1.4,4,5.8,11.3,5.8,11.3s7-5.1,11.7-12.5
			c4.7-7.4,3.4-14.9,3.4-14.9l-3-2.2c0,0,0.4,2.5-1.8,3.1c-2.2,0.6-8.7,9.1-8.7,9.1S118.5,67.1,118,66.4z"/>
		<polygon class="st9" points="120.8,78.3 124.9,90.8 119.2,95.8 115.5,89.2 		"/>
		<g>
			<g>
				<path class="st0" d="M99.2,28.4c0,0-12.1,13.4,0.2,30.3c0,0-3.7,6.1,1.3,15.5c0,0,2.6,7.3-2,9.1c0,0,17.1,3.1,15.1-9.8
					c-1.4-8.8-4.4-4.3-1.2-11.6c3.2-7.3,0.5-17.3-6.2-22.3"/>
				<path class="st10" d="M123.3,63.7L123.3,63.7c-10.9,0-19.3-9.7-19.3-20.6V27.8c0-10.9,8.4-13.1,19.3-13.1h0
					c10.9,0,17.7,2.2,17.7,13.1v15.3C140.9,54,134.2,63.7,123.3,63.7z"/>
				<ellipse class="st3" cx="141.5" cy="40.9" rx="3.2" ry="4.2"/>
				<ellipse class="st3" cx="105.1" cy="40.9" rx="3.2" ry="4.2"/>
				<ellipse class="st0" cx="114.9" cy="41.3" rx="2.4" ry="1.7"/>
				<ellipse class="st0" cx="131.7" cy="41.3" rx="2.4" ry="1.7"/>
				<rect x="122.3" y="46.6" class="st3" width="2" height="2"/>
				<path class="st11" d="M119.1,54.1c0,0,4.2,3.1,9.1,0"/>
				<path class="st3" d="M121.7,58.3c0,0,1.8,0.8,4,0"/>
				<ellipse class="st3" cx="134.6" cy="47.7" rx="3.4" ry="1.9"/>
				<ellipse class="st3" cx="112.8" cy="47.7" rx="3.4" ry="1.9"/>
				<path class="st12" d="M131.4,34.7c0,0,3.8-0.9,4.2,2.5"/>
				<path class="st12" d="M110.7,36.9c0,0,1.5-3.6,4.4-2"/>
				<path class="st0" d="M147.4,80.6c5.4,3.6,4.5,8.4,3.1,8.9c0,0,7.2-1.9,7.9-11c0.7-9.2-8.3-7.3-7.5-15.5c0.4-4,7.4-7.6,1.3-17.8
					c0,0,4.9-12.2-1.3-17.2c0,0,1.1-15.8-15-18.6c0,0-10.9-7.1-19,1.2c0,0-4.5,13.4,4.3,13c7.6-0.3,14.8,3.8,16.6,8
					c0.6,1.4-0.1,4.4,3.2,5.4c0,0-2.9,6.3,0,12.3c0,0-5,9.3,0.1,13.5L147.4,80.6z"/>
				<path class="st0" d="M119.1,20.3c0,0,2.6,7.1-7.5,10.2c-2.5,0.8-6,3.2-4.1,9.5c0,0-6.1-1.6-6.3-8.6c0,0-6-5.9,0.8-11
					c0,0-0.8-13.1,15.4-9.6C117.4,10.7,123.4,15.6,119.1,20.3z"/>
				<path class="st0" d="M119.1,20.3c0,0-2.8,10.7,17.1,7.2l-2.1-4.3c0,0-2.2,8.5,6.3,11.3c8.5,2.8,0.5-13.4,0.5-13.4l-11.7-3.7
					L119.1,20.3z"/>
				<path class="st0" d="M141.5,61.8c0,0-8.4,11.5,5.9,18.8"/>
			</g>
			<circle class="st13" cx="114.4" cy="42.7" r="6.9"/>
			<circle class="st13" cx="133" cy="42.7" r="6.9"/>
			<path class="st13" d="M121.3,42.7c0,0,2.4-2.3,4.9,0"/>
		</g>
	</g>
	<path class="st14" d="M227,128.5H23c-1.8,0-3.3-1.5-3.3-3.3v0c0-1.8,1.5-3.3,3.3-3.3h204c1.8,0,3.3,1.5,3.3,3.3v0
		C230.2,127,228.8,128.5,227,128.5z"/>
	<path class="st15" d="M147.9,121.7H81.7v-3.4h66.2c1,0,1.7,0.8,1.7,1.7v0C149.6,120.9,148.8,121.7,147.9,121.7z"/>
	<path class="st16" d="M128.1,121.8H62.5c-0.7,0-1.2-0.5-1.2-1.2v-42c0-0.7,0.5-1.2,1.2-1.2h65.6c0.7,0,1.2,0.5,1.2,1.2v42
		C129.3,121.2,128.7,121.8,128.1,121.8z"/>
	<circle class="st6" cx="95.1" cy="100.6" r="7.2"/>
	<path class="st17" d="M112.2,77.4h15.9c0.7,0,1.2,0.5,1.2,1.2v42c0,0.7-0.5,1.2-1.2,1.2H79.9L112.2,77.4z"/>
	<path class="st10" d="M149.9,121.4h-13.3v-3.9c0-2.6,2.1-4.6,4.6-4.6h4.1c2.6,0,4.6,2.1,4.6,4.6V121.4z"/>
</g>
</svg>
